<?xml version="1.0" standalone="no"?>
<!DOCTYPE svg PUBLIC "-//W3C//DTD SVG 20010904//EN"
 "http://www.w3.org/TR/2001/REC-SVG-20010904/DTD/svg10.dtd">
<svg version="1.0" xmlns="http://www.w3.org/2000/svg"
 width="512.000000pt" height="512.000000pt" viewBox="0 0 512.000000 512.000000"
 preserveAspectRatio="xMidYMid meet">
<metadata>
Created by potrace 1.14, written by Peter Selinger 2001-2017
</metadata>
<g transform="translate(0.000000,512.000000) scale(0.100000,-0.100000)"
fill="#000000" stroke="none">
<path d="M2547 5108 c-104 -13 -104 -13 -101 -110 5 -128 11 -172 36 -263 90
-333 260 -527 602 -689 141 -67 193 -87 306 -117 65 -17 144 -26 243 -29 17 0
18 -7 12 -82 -8 -102 -14 -258 -16 -445 -2 -79 -5 -143 -8 -143 -3 0 -17 6
-31 13 -56 29 -230 123 -302 163 -55 30 -80 39 -86 31 -4 -7 -21 -46 -37 -87
-15 -41 -61 -160 -102 -265 -41 -104 -94 -244 -119 -310 -26 -66 -50 -129 -55
-140 -31 -74 -76 -195 -72 -198 3 -4 102 29 153 50 8 3 20 7 25 9 6 1 55 19
109 38 55 20 101 34 103 32 7 -7 18 -98 28 -231 11 -141 16 -201 20 -211 2 -6
0 -15 -3 -21 -10 -15 -127 -92 -275 -181 -70 -42 -139 -85 -155 -94 -15 -10
-34 -21 -42 -25 -34 -17 -270 -156 -270 -159 0 -2 18 -29 40 -61 22 -32 45
-65 50 -73 5 -8 29 -42 51 -75 71 -102 183 -266 194 -283 6 -9 26 -39 46 -67
19 -27 77 -112 128 -187 51 -76 98 -138 103 -138 9 0 37 20 166 115 56 42 222
163 293 214 18 13 19 12 3 -25 -9 -22 -22 -52 -29 -69 -45 -101 -55 -125 -55
-130 0 -3 -16 -40 -35 -81 -19 -41 -35 -76 -35 -79 0 -6 -54 -123 -131 -283
-81 -167 -85 -195 -36 -247 32 -35 58 -43 207 -61 19 -2 55 -8 80 -14 25 -5
63 -11 85 -14 22 -3 67 -10 100 -16 33 -5 80 -13 105 -16 25 -3 61 -10 80 -15
20 -5 54 -11 75 -14 22 -2 63 -8 90 -12 28 -4 104 -8 169 -8 115 0 119 1 137
25 10 14 20 37 23 53 3 15 7 35 10 45 3 9 7 35 10 57 3 22 8 54 11 70 21 119
54 334 61 395 3 25 7 52 9 60 2 8 7 42 10 75 4 33 8 76 10 95 18 151 22 301
11 360 -4 19 -14 71 -21 115 -8 44 -17 91 -20 105 -3 14 -8 41 -11 60 -3 19
-7 43 -10 52 -3 10 -7 30 -10 45 -5 31 -31 164 -39 203 -2 14 -7 36 -10 50 -3
14 -7 43 -11 65 -3 22 -9 56 -14 75 -5 19 -11 51 -14 70 -8 51 -16 93 -21 110
-2 8 -7 31 -10 50 -3 19 -10 58 -15 85 -5 28 -12 64 -15 80 -3 17 -7 40 -9 51
-2 12 -7 39 -10 60 -4 22 -8 46 -11 54 -2 8 -6 31 -9 50 -4 29 -30 182 -50
300 -7 41 -26 172 -32 220 -3 25 -6 59 -8 75 -2 17 -7 77 -10 135 -10 153 -15
230 -20 275 -3 22 -8 67 -11 100 -4 33 -8 71 -10 85 -2 14 -7 50 -10 80 -3 30
-8 68 -11 83 -11 52 -16 112 -19 212 -5 148 -22 275 -40 305 -3 5 -8 19 -10
30 -14 72 -118 224 -212 310 -55 50 -219 160 -238 160 -3 0 -24 9 -48 19 -71
33 -228 76 -310 87 -23 3 -58 9 -78 14 -49 10 -537 9 -622 -2z"/>
<path d="M1955 3910 c-41 -10 -120 -58 -511 -312 -83 -54 -155 -98 -160 -98
-5 0 -72 63 -148 140 -77 77 -141 139 -142 137 -2 -1 -16 -54 -33 -117 -16
-63 -47 -182 -69 -265 -75 -282 -113 -430 -117 -445 -1 -8 -19 -73 -38 -145
-49 -184 -47 -174 -28 -179 9 -2 50 -10 91 -16 41 -7 84 -14 95 -17 11 -2 29
-6 40 -7 11 -2 48 -9 82 -15 61 -12 89 -17 136 -25 12 -2 60 -11 107 -20 47
-8 101 -18 120 -21 19 -3 42 -8 50 -10 8 -2 35 -7 60 -10 24 -4 47 -8 50 -10
4 -2 26 -6 51 -9 24 -3 73 -12 109 -20 36 -7 66 -12 68 -11 3 3 -114 333 -143
401 -7 17 -10 36 -6 42 3 5 82 49 175 98 l169 87 90 -17 c155 -30 228 -48 240
-61 7 -6 39 -43 72 -80 33 -38 65 -73 70 -79 6 -6 48 -54 95 -106 131 -146
159 -175 162 -170 2 3 37 88 77 190 41 102 80 199 87 215 47 111 214 538 214
548 0 7 -17 23 -37 37 -20 14 -41 30 -47 35 -32 29 -335 257 -376 282 -60 37
-185 54 -415 58 -115 1 -223 0 -240 -5z"/>
<path d="M619 2458 c-4 -19 -7 -44 -13 -103 -3 -39 -8 -81 -10 -95 -3 -14 -7
-65 -11 -114 -4 -49 -8 -98 -10 -110 -2 -11 -6 -59 -9 -104 -3 -46 -8 -88 -11
-92 -3 -5 -1 -12 5 -15 7 -4 7 -12 2 -18 -5 -7 -8 -58 -8 -113 l1 -101 63
-124 c34 -68 80 -153 102 -189 22 -36 44 -74 49 -85 8 -17 115 -184 153 -239
37 -53 72 -92 92 -103 22 -12 205 -63 242 -68 12 -2 31 -8 42 -14 11 -6 31
-11 45 -11 13 0 27 -3 31 -7 3 -4 14 -8 24 -9 9 -1 107 -26 217 -54 110 -29
212 -55 228 -58 15 -2 30 -8 33 -13 3 -5 8 -69 10 -142 8 -228 10 -266 15
-271 2 -3 18 2 34 9 43 21 352 155 507 221 73 31 153 66 178 77 25 12 47 22
50 22 3 1 28 12 55 24 28 13 97 43 155 68 57 24 108 47 112 49 7 4 -160 256
-392 594 -6 8 -62 90 -124 183 l-114 167 -54 -72 c-30 -40 -85 -116 -123 -169
l-69 -97 -36 13 c-19 7 -55 22 -80 33 -25 11 -101 44 -170 72 -195 82 -230 99
-225 113 2 6 6 32 9 57 3 25 8 56 11 70 5 26 11 54 21 105 11 60 55 259 80
366 15 60 24 112 21 115 -5 5 -222 54 -247 56 -8 0 -42 6 -75 14 -33 7 -75 16
-94 19 -19 3 -37 7 -40 9 -3 2 -22 7 -41 10 -19 3 -57 10 -85 16 -154 31 -252
52 -270 55 -11 3 -54 12 -95 20 -84 16 -113 22 -152 31 -16 3 -28 4 -29 2z"/>
</g>
</svg>
