<?xml version="1.0" standalone="no"?>
<!DOCTYPE svg PUBLIC "-//W3C//DTD SVG 20010904//EN"
 "http://www.w3.org/TR/2001/REC-SVG-20010904/DTD/svg10.dtd">
<svg version="1.0" xmlns="http://www.w3.org/2000/svg"
 width="695.000000pt" height="695.000000pt" viewBox="0 0 695.000000 695.000000"
 preserveAspectRatio="xMidYMid meet">
<metadata>
Created by potrace 1.14, written by Peter Selinger 2001-2017
</metadata>
<g transform="translate(0.000000,695.000000) scale(0.100000,-0.100000)"
fill="#000000" stroke="none">
<path d="M3787 6824 c-1 -1 -63 -4 -137 -8 -74 -3 -144 -8 -155 -10 -11 -3
-33 -5 -49 -5 l-29 -1 7 -87 c33 -448 220 -801 536 -1009 231 -151 492 -273
687 -320 84 -20 137 -26 237 -27 l129 -2 -7 -310 c-4 -170 -8 -421 -9 -557
l-2 -247 -95 51 c-107 58 -113 61 -335 186 -88 50 -163 87 -166 84 -3 -4 -36
-86 -73 -182 -38 -96 -74 -188 -81 -205 -7 -16 -65 -163 -128 -325 -63 -162
-124 -319 -136 -347 l-21 -53 58 22 c31 12 138 52 237 89 99 37 181 66 182 66
1 -1 4 -29 8 -62 3 -33 8 -76 10 -95 2 -19 7 -62 10 -95 3 -33 7 -80 10 -105
21 -211 24 -401 6 -433 -15 -26 -129 -111 -261 -194 -111 -69 -508 -300 -629
-365 l-51 -28 113 -165 c411 -603 591 -867 596 -869 3 -2 70 42 148 98 78 55
182 129 230 163 88 62 379 274 398 291 6 5 23 17 38 26 l27 18 -24 -63 c-39
-103 -46 -122 -63 -159 -8 -19 -19 -44 -24 -55 -4 -11 -35 -78 -69 -148 -33
-71 -60 -130 -60 -131 0 -2 -31 -68 -69 -147 -38 -79 -83 -175 -101 -214 -38
-81 -92 -195 -184 -388 -36 -77 -66 -140 -66 -142 0 -5 54 -16 155 -30 22 -3
65 -10 95 -15 30 -5 73 -12 95 -15 22 -4 50 -8 62 -10 12 -2 57 -9 100 -15 43
-6 89 -13 103 -16 14 -2 68 -11 120 -19 52 -8 106 -17 120 -19 14 -3 113 -18
220 -35 262 -40 269 -42 318 -51 23 -4 42 -6 42 -4 0 1 6 33 14 71 8 37 17 82
19 98 7 43 55 306 60 330 3 11 8 45 12 75 4 30 9 62 10 70 1 8 6 35 11 60 4
25 9 54 9 65 1 18 10 84 20 155 16 107 17 116 32 285 9 105 10 344 1 420 -9
74 -74 418 -104 545 -11 50 -106 511 -110 540 -3 19 -14 80 -24 135 -11 55
-26 141 -35 190 -8 50 -17 100 -19 111 -2 12 -7 37 -10 55 -3 19 -19 113 -35
209 -16 96 -32 195 -36 220 -3 25 -8 56 -10 70 -17 102 -39 262 -50 360 -3 30
-8 71 -10 90 -3 19 -7 64 -10 100 -3 36 -8 81 -10 100 -5 42 -13 131 -20 220
-6 69 -14 148 -20 190 -2 14 -6 60 -10 103 -3 43 -8 87 -10 99 -3 11 -7 46
-10 77 -3 31 -8 67 -11 81 -2 14 -7 48 -9 75 -3 28 -8 66 -10 85 -3 19 -11 67
-17 105 -5 39 -12 136 -13 216 -4 193 -30 319 -93 444 -122 245 -394 448 -731
546 -81 23 -241 57 -311 64 -30 4 -66 8 -80 11 -35 6 -447 22 -453 18z"/>
<path d="M2745 5220 c-84 -7 -151 -47 -847 -512 l-118 -78 -165 165 -164 165
-12 -43 c-6 -23 -31 -116 -56 -207 -25 -91 -62 -230 -83 -310 -21 -80 -48
-181 -60 -225 -12 -44 -46 -172 -76 -285 -30 -113 -57 -212 -60 -222 -5 -17 4
-20 84 -33 66 -10 101 -16 257 -45 88 -16 203 -36 255 -44 52 -9 106 -18 120
-21 14 -2 104 -18 200 -35 222 -38 240 -41 267 -46 25 -5 25 -6 -92 306 -47
126 -51 137 -55 155 -1 6 -6 18 -11 27 -10 18 -5 21 211 137 213 115 324 165
370 167 52 2 160 -16 287 -47 48 -11 99 -23 113 -26 34 -6 64 -27 105 -71 37
-41 41 -46 175 -192 52 -56 109 -117 125 -135 17 -17 52 -55 78 -83 45 -49 48
-51 56 -29 14 35 109 279 161 412 26 66 82 210 124 320 43 110 81 209 86 220
5 11 18 43 29 72 l20 51 -42 34 c-23 18 -69 54 -102 78 -33 25 -62 47 -65 50
-3 3 -59 46 -125 95 -66 48 -122 91 -125 94 -3 3 -31 25 -62 48 -66 50 -116
63 -343 89 -72 8 -376 11 -460 4z"/>
<path d="M969 3253 c-1 -10 -2 -29 -4 -43 -1 -14 -5 -70 -9 -125 -4 -55 -9
-116 -11 -135 -4 -38 -12 -136 -20 -275 -3 -49 -8 -106 -10 -125 -2 -19 -7
-96 -10 -171 -7 -164 -2 -180 142 -429 12 -19 42 -73 69 -120 60 -107 242
-395 299 -476 l44 -61 323 -86 c178 -48 337 -91 353 -96 17 -5 86 -23 155 -41
209 -54 372 -98 375 -102 2 -2 7 -66 10 -143 4 -77 8 -169 10 -205 2 -36 4
-82 4 -102 1 -42 -1 -42 94 1 38 17 569 243 807 343 220 93 361 156 363 161 1
3 -47 76 -106 164 -162 236 -387 566 -459 671 -35 51 -85 125 -111 163 l-49
70 -66 -93 c-36 -51 -69 -95 -72 -98 -3 -3 -17 -21 -30 -40 -13 -19 -48 -67
-77 -107 l-53 -72 -167 69 c-432 176 -610 260 -622 293 -10 26 5 144 42 332
32 161 73 349 86 393 5 17 8 32 6 32 -3 0 0 11 5 25 5 14 12 36 14 48 11 49
15 69 21 87 3 10 2 21 -2 23 -6 4 -228 53 -368 81 -66 14 -673 142 -790 167
-77 16 -150 32 -162 35 -17 3 -23 0 -24 -13z"/>
</g>
</svg>
