<?xml version="1.0" encoding="UTF-8" standalone="no"?>
<!DOCTYPE svg PUBLIC "-//W3C//DTD SVG 1.1//EN" "http://www.w3.org/Graphics/SVG/1.1/DTD/svg11.dtd">
<svg width="100%" height="100%" viewBox="0 0 29 27" version="1.1" xmlns="http://www.w3.org/2000/svg" xmlns:xlink="http://www.w3.org/1999/xlink" xml:space="preserve" xmlns:serif="http://www.serif.com/" style="fill-rule:evenodd;clip-rule:evenodd;stroke-linejoin:round;stroke-miterlimit:2;" id="itch">
    <g transform="matrix(1,0,0,1,-374,-107)">
        <g id="steam-black" serif:id="steam black">
        </g>
        <g id="steam-black1" serif:id="steam black">
        </g>
        <g id="steam-white" serif:id="steam white">
        </g>
        <g id="small-icon-steam" serif:id="small icon steam">
        </g>
        <g id="steam-logo-white" serif:id="steam logo white">
        </g>
        <g id="steam-logo-black" serif:id="steam logo black">
        </g>
        <g id="itch-io-white" serif:id="itch io white">
        </g>
        <g id="itch-io-black" serif:id="itch io black" transform="matrix(0.128335,0,0,0.128335,374.256,107.863)">
            <path d="M28.832,1.229C19.188,6.955 0.186,28.787 0.004,34.512L0.004,43.99C0.004,56.004 11.234,66.562 21.428,66.562C33.668,66.562 43.868,56.416 43.87,44.375C43.87,56.415 53.72,66.562 65.963,66.562C78.205,66.562 87.739,56.416 87.739,44.375C87.739,56.415 98.209,66.562 110.449,66.562L110.669,66.562C122.909,66.562 133.389,56.416 133.389,44.375C133.389,56.415 142.919,66.562 155.159,66.562C167.4,66.562 177.25,56.416 177.25,44.375C177.25,56.415 187.45,66.562 199.69,66.562C209.88,66.562 221.11,56.005 221.11,43.99L221.11,34.512C220.92,28.787 201.92,6.955 192.28,1.229C162.31,0.176 141.519,-0.005 110.549,-0.001C79.59,0.001 37.36,0.484 28.83,1.229L28.832,1.229ZM87.585,60.904C86.415,62.944 84.964,64.811 83.277,66.45C78.49,71.145 72.043,73.776 65.337,73.77C58.352,73.77 51.981,70.97 47.361,66.448C45.691,64.808 44.421,63.054 43.251,61.012L43.251,61.016C42.091,63.062 40.461,64.814 38.791,66.456C33.991,71.151 27.535,73.779 20.821,73.773C19.981,73.773 19.111,73.543 18.401,73.303C17.421,83.553 17.001,93.343 16.857,100.493L16.857,100.533C16.837,104.163 16.822,107.143 16.803,111.283C16.993,132.793 14.673,180.983 26.283,192.823C44.273,197.023 77.377,198.933 110.593,198.943L110.596,198.943C143.81,198.933 176.917,197.023 194.907,192.833C206.517,180.991 204.197,132.801 204.387,111.298C204.37,107.158 204.353,104.176 204.334,100.548L204.334,100.508C204.184,93.366 203.769,83.573 202.784,73.325C202.074,73.565 201.197,73.798 200.354,73.798C193.638,73.804 187.181,71.176 182.379,66.482C180.704,64.837 179.079,63.085 177.916,61.042L177.911,61.035C176.744,63.075 175.473,64.832 173.798,66.471C169.178,70.991 162.808,73.791 155.824,73.791C148.841,73.791 142.504,70.991 137.884,66.471C136.198,64.83 134.748,62.964 133.574,60.925C132.417,62.963 130.982,64.83 129.308,66.471C124.506,71.168 118.046,73.798 111.328,73.791C111.084,73.791 110.838,73.781 110.598,73.771L110.59,73.771C110.347,73.781 110.104,73.791 109.86,73.791C102.874,73.791 96.503,70.991 91.882,66.471C90.208,64.831 88.77,62.965 87.612,60.927L87.585,60.904ZM69.123,84.777L69.121,84.785L69.141,84.785C76.451,84.801 82.951,84.785 90.991,93.568C97.331,92.905 103.941,92.572 110.571,92.583L110.581,92.583C117.211,92.573 123.821,92.913 130.161,93.573C138.211,84.793 144.701,84.813 152.011,84.793L152.031,84.793L152.031,84.783C155.491,84.783 169.302,84.783 178.932,111.823L189.28,148.923C196.945,176.523 186.827,177.203 174.207,177.223C155.486,176.533 145.126,162.933 145.126,149.343C134.766,151.043 122.676,151.893 110.591,151.893L110.586,151.893C98.5,151.893 86.414,151.043 76.056,149.343C76.056,162.933 65.696,176.523 46.978,177.223C34.358,177.203 24.238,176.523 31.905,148.933L42.245,111.833C51.875,84.793 65.695,84.793 69.145,84.793L69.123,84.777ZM110.563,106.027L110.563,106.034C110.546,106.051 90.861,124.13 87.323,130.56L100.213,130.044L100.213,141.284C100.213,141.811 105.387,141.597 110.563,141.358L110.57,141.358C115.747,141.598 120.92,141.811 120.92,141.285L120.92,130.045L133.81,130.559C130.272,124.129 110.57,106.034 110.57,106.034L110.57,106.028L110.568,106.03L110.563,106.027Z" style="fill-rule:nonzero;"/>
        </g>
        <g id="reddit">
        </g>
    </g>
</svg>
