<?xml version="1.0" encoding="UTF-8" standalone="no"?><!DOCTYPE svg PUBLIC "-//W3C//DTD SVG 1.1//EN" "http://www.w3.org/Graphics/SVG/1.1/DTD/svg11.dtd"><svg id="link" width="100%" height="100%" viewBox="0 0 40 40" version="1.1" xmlns="http://www.w3.org/2000/svg" xmlns:xlink="http://www.w3.org/1999/xlink" xml:space="preserve" xmlns:serif="http://www.serif.com/" style="fill-rule:evenodd;clip-rule:evenodd;stroke-linejoin:round;stroke-miterlimit:2;"><g id="bin"></g><g id="bin1" serif:id="bin"></g><g id="bin2" serif:id="bin"></g><g id="bin3" serif:id="bin"></g><path d="M41,41l-0,-42l-42,-0l-0,42l42,-0Zm-1,-41l-40,0l-0,40l40,0l-0,-40Z" style="fill:#ff00e8;"/><g><path d="M35.603,4.39c-1.545,-1.546 -3.464,-2.393 -5.402,-2.393c-1.931,0 -3.784,0.823 -5.35,2.393l-4.486,4.486c-2.232,2.232 -2.91,5.001 -2.04,7.564l9.281,-9.287c0.835,-0.835 1.707,-1.254 2.597,-1.254c0.894,-0 1.83,0.442 2.642,1.254c0.782,0.779 1.214,1.658 1.249,2.525c0.035,0.929 -0.382,1.84 -1.249,2.704l-9.272,9.276c0.716,0.243 1.454,0.369 2.196,0.369c1.934,0.003 3.784,-0.829 5.353,-2.396l4.481,-4.489c1.646,-1.641 2.473,-3.586 2.391,-5.619c-0.075,-1.84 -0.923,-3.665 -2.391,-5.133l0,0Z" style="fill-rule:nonzero;"/><path d="M12.629,27.374c0.38,0.381 0.879,0.574 1.377,0.574c0.5,0 1.001,-0.193 1.38,-0.574l11.989,-11.994c0.764,-0.765 0.764,-1.995 0,-2.76c-0.761,-0.764 -1.996,-0.764 -2.759,0l-11.99,11.997c-0.76,0.762 -0.764,1.995 0.003,2.757l0,-0Z" style="fill-rule:nonzero;"/><path d="M12.393,32.844c-0.832,0.832 -1.705,1.254 -2.594,1.256c-0.895,0 -1.832,-0.448 -2.64,-1.256c-0.782,-0.783 -1.219,-1.662 -1.252,-2.526c-0.037,-0.931 0.385,-1.842 1.251,-2.707l9.272,-9.272c-0.716,-0.243 -1.455,-0.375 -2.195,-0.375c-1.935,0.002 -3.789,0.832 -5.353,2.405l-4.483,4.482c-1.647,1.647 -2.471,3.59 -2.394,5.619c0.074,1.843 0.925,3.669 2.394,5.133c1.543,1.547 3.463,2.399 5.402,2.399c1.933,0 3.786,-0.828 5.352,-2.396l4.482,-4.485c2.234,-2.236 2.915,-5.001 2.042,-7.562l-9.284,9.285Z" style="fill-rule:nonzero;"/></g></svg>
